HIERARCHY
ROOT hip
{
  OFFSET 0 0 0
  CHANNELS 6 Xposition Yposition Zposition Zrotation Yrotation Xrotation
  JOINT abdomen
  {
    OFFSET 0 20.6881 -0.73152
    CHANNELS 3 Zrotation Xrotation Yrotation
    JOINT chest
    {
      OFFSET 0 11.7043 -0.48768
      CHANNELS 3 Zrotation Xrotation Yrotation
      JOINT neck
      {
        OFFSET 0 22.1894 -2.19456
        CHANNELS 3 Zrotation Xrotation Yrotation
        JOINT head
        {
          OFFSET -0.24384 7.07133 1.2192
          CHANNELS 3 Zrotation Xrotation Yrotation
          JOINT leftEye
          {
            OFFSET 4.14528 8.04674 8.04672
            CHANNELS 3 Zrotation Xrotation Yrotation
            End Site
            {
              OFFSET 1 0 0
            }
          }
          JOINT rightEye
          {
            OFFSET -3.6576 8.04674 8.04672
            CHANNELS 3 Zrotation Xrotation Yrotation
            End Site
            {
              OFFSET 1 0 0
            }
          }
        }
      }
      JOINT rCollar
      {
        OFFSET -2.68224 19.2634 -4.8768
        CHANNELS 3 Zrotation Xrotation Yrotation
        JOINT rShldr
        {
          OFFSET -8.77824 -1.95073 1.46304
          CHANNELS 3 Zrotation Xrotation Yrotation
          JOINT rForeArm
          {
            OFFSET -28.1742 -1.7115 0.48768
            CHANNELS 3 Zrotation Xrotation Yrotation
            JOINT rHand
            {
              OFFSET -22.5879 0.773209 7.07136
              CHANNELS 3 Zrotation Xrotation Yrotation
              JOINT rThumb1
              {
                OFFSET -1.2192 -0.487915 3.41376
                CHANNELS 3 Zrotation Xrotation Yrotation
                JOINT rThumb2
                {
                  OFFSET -3.37035 -0.52449 3.41376
                  CHANNELS 3 Zrotation Xrotation Yrotation
                  End Site
                  {
                    OFFSET -1.78271 -1.18214 1.43049
                  }
                }
              }
              JOINT rIndex1
              {
                OFFSET -7.75947 0.938293 5.60832
                CHANNELS 3 Zrotation Xrotation Yrotation
                JOINT rIndex2
                {
                  OFFSET -2.54057 -0.884171 1.56538
                  CHANNELS 3 Zrotation Xrotation Yrotation
                  End Site
                  {
                    OFFSET -1.62519 -0.234802 1.16502
                  }
                }
              }
              JOINT rMid1
              {
                OFFSET -8.24714 1.18213 3.41376
                CHANNELS 3 Zrotation Xrotation Yrotation
                JOINT rMid2
                {
                  OFFSET -3.10165 -0.590103 1.0647
                  CHANNELS 3 Zrotation Xrotation Yrotation
                  End Site
                  {
                    OFFSET -2.48547 -0.328903 0.83742
                  }
                }
              }
              JOINT rRing1
              {
                OFFSET -8.82822 0.546677 1.51678
                CHANNELS 3 Zrotation Xrotation Yrotation
                JOINT rRing2
                {
                  OFFSET -2.60934 -0.819778 -0.0198488
                  CHANNELS 3 Zrotation Xrotation Yrotation
                  End Site
                  {
                    OFFSET -2.33842 -0.294052 0.168128
                  }
                }
              }
              JOINT rPinky1
              {
                OFFSET -8.27202 -0.0477905 -0.4584
                CHANNELS 3 Zrotation Xrotation Yrotation
                JOINT rPinky2
                {
                  OFFSET -1.82734 -0.647385 -0.700984
                  CHANNELS 3 Zrotation Xrotation Yrotation
                  End Site
                  {
                    OFFSET -1.69225 -0.51767 -0.607171
                  }
                }
              }
            }
          }
        }
      }
      JOINT lCollar
      {
        OFFSET 2.68224 19.2634 -4.8768
        CHANNELS 3 Zrotation Xrotation Yrotation
        JOINT lShldr
        {
          OFFSET 8.77824 -1.95073 1.46304
          CHANNELS 3 Zrotation Xrotation Yrotation
          JOINT lForeArm
          {
            OFFSET 28.1742 -1.7115 0.48768
            CHANNELS 3 Zrotation Xrotation Yrotation
            JOINT lHand
            {
              OFFSET 22.5879 0.773209 7.07136
              CHANNELS 3 Zrotation Xrotation Yrotation
              JOINT lThumb1
              {
                OFFSET 1.2192 -0.487915 3.41376
                CHANNELS 3 Zrotation Xrotation Yrotation
                JOINT lThumb2
                {
                  OFFSET 3.37035 -0.52449 3.41376
                  CHANNELS 3 Zrotation Xrotation Yrotation
                  End Site
                  {
                    OFFSET 1.78271 -1.18214 1.43049
                  }
                }
              }
              JOINT lIndex1
              {
                OFFSET 7.75947 0.938293 5.60832
                CHANNELS 3 Zrotation Xrotation Yrotation
                JOINT lIndex2
                {
                  OFFSET 2.54057 -0.884171 1.56538
                  CHANNELS 3 Zrotation Xrotation Yrotation
                  End Site
                  {
                    OFFSET 1.62519 -0.234802 1.16502
                  }
                }
              }
              JOINT lMid1
              {
                OFFSET 8.24714 1.18213 3.41376
                CHANNELS 3 Zrotation Xrotation Yrotation
                JOINT lMid2
                {
                  OFFSET 3.10165 -0.590103 1.0647
                  CHANNELS 3 Zrotation Xrotation Yrotation
                  End Site
                  {
                    OFFSET 2.48547 -0.328903 0.83742
                  }
                }
              }
              JOINT lRing1
              {
                OFFSET 8.82822 0.546677 1.51678
                CHANNELS 3 Zrotation Xrotation Yrotation
                JOINT lRing2
                {
                  OFFSET 2.60934 -0.819778 -0.0198488
                  CHANNELS 3 Zrotation Xrotation Yrotation
                  End Site
                  {
                    OFFSET 2.33842 -0.294052 0.168128
                  }
                }
              }
              JOINT lPinky1
              {
                OFFSET 8.27202 -0.0477905 -0.4584
                CHANNELS 3 Zrotation Xrotation Yrotation
                JOINT lPinky2
                {
                  OFFSET 1.82734 -0.647385 -0.700984
                  CHANNELS 3 Zrotation Xrotation Yrotation
                  End Site
                  {
                    OFFSET 1.69225 -0.51767 -0.607171
                  }
                }
              }
            }
          }
        }
      }
    }
  }
  JOINT rButtock
  {
    OFFSET -8.77824 4.35084 1.2192
    CHANNELS 3 Zrotation Xrotation Yrotation
    JOINT rThigh
    {
      OFFSET 0 -1.70687 -2.19456
      CHANNELS 3 Zrotation Xrotation Yrotation
      JOINT rShin
      {
        OFFSET 0 -36.8199 0.73152
        CHANNELS 3 Zrotation Xrotation Yrotation
        JOINT rFoot
        {
          OFFSET 0.73152 -45.1104 -5.12064
          CHANNELS 3 Zrotation Xrotation Yrotation
          End Site
          {
            OFFSET -1.1221 -3.69964 12.103
          }
        }
      }
    }
  }
  JOINT lButtock
  {
    OFFSET 8.77824 4.35084 1.2192
    CHANNELS 3 Zrotation Xrotation Yrotation
    JOINT lThigh
    {
      OFFSET 0 -1.70687 -2.19456
      CHANNELS 3 Zrotation Xrotation Yrotation
      JOINT lShin
      {
        OFFSET 0 -36.8199 0.73152
        CHANNELS 3 Zrotation Xrotation Yrotation
        JOINT lFoot
        {
          OFFSET -0.73152 -45.1104 -5.12064
          CHANNELS 3 Zrotation Xrotation Yrotation
          End Site
          {
            OFFSET 1.1221 -3.69964 12.103
          }
        }
      }
    }
  }
}
MOTION
Frames:	9
Frame Time:	0.00833333
9.91495 85.1237 33.1238 0.0 0.0 0.0 0.435971 -0.0238512 0.01282 0.121274 -0.0396248 0.0210492 -4.75496e-15 0.0 1.2424e-17 -1.43001e-14 3.18055e-15 5.59082e-17 -0.0 0.0 0.0 -0.0 0.0 0.0 -2.38703e-15 -3.7078e-17 1.49089e-16 -4.77314e-14 -1.15544e-15 9.93923e-16 -8.68987e-13 2.25223e-13 4.13472e-14 -9.88559e-12 -4.29971e-13 6.36111e-15 -2.33318e-11 -4.42818e-13 1.01778e-13 -4.0304e-11 -7.66514e-13 1.74135e-13 -2.33262e-11 -4.42495e-13 9.54166e-14 7.73091 5.47488 0.417314 -2.33306e-11 -4.42495e-13 1.04958e-13 2.90554 0.965183 0.102902 -2.33251e-11 -4.42594e-13 9.78021e-14 10.2786 0.731801 0.0259123 -2.33389e-11 -4.42892e-13 1.04958e-13 2.22167 -0.733487 -0.20892 -2.38396e-15 -3.7078e-17 -4.96962e-17 -5.20872e-14 -1.09953e-15 -1.19271e-15 -8.60439e-13 -2.91021e-13 0.0 -9.89432e-12 9.0447e-14 4.77083e-14 -2.33269e-11 -4.33984e-13 8.26944e-14 -4.02809e-11 -7.53791e-13 1.53462e-13 -2.33349e-11 -4.3176e-13 9.85972e-14 -7.73091 5.47488 -0.417314 -2.33273e-11 -4.34046e-13 8.5875e-14 -2.90554 0.965183 -0.102902 -2.33393e-11 -4.33549e-13 9.22361e-14 -10.2786 0.731801 -0.0259123 -2.33202e-11 -4.33351e-13 8.5875e-14 -2.22167 -0.733487 0.20892 -2.03217e-16 0.0 -3.88251e-19 0.65198 -4.7111 -0.0694768 -0.00084402 2.99807 0.00381941 -0.326373 1.72324 0.069787 2.03217e-16 0.0 3.88251e-19 0.0331393 -2.68025 0.0231601 0.00579498 -0.679755 0.0505421 0.29616 3.3702 -0.0966798
5.10288 82.6196 16.998 -176.936 -26.9833 -169.858 1.32707 -0.695108 0.774406 0.859062 -4.03873 0.259062 -0.731065 -0.239368 -0.359007 -0.215453 3.3853 -1.16494 -0.0 0.0 0.0 -0.0 0.0 0.0 -1.02854e-14 -4.08469e-14 -1.45077e-13 18.1993 12.8915 -3.39423 -6.02025 -3.22454 8.8112 0.0108031 -2.30861 -0.323507 2.31979e-10 -1.78787e-10 6.0705e-11 4.00939e-10 -3.11836e-10 1.07118e-10 2.31984e-10 -1.78787e-10 6.06958e-11 7.73091 5.47488 0.417314 2.31979e-10 -1.78788e-10 6.07036e-11 2.90554 0.965183 0.102902 2.31985e-10 -1.78788e-10 6.07009e-11 10.2786 0.731801 0.0259123 2.31972e-10 -1.78788e-10 6.07083e-11 2.22167 -0.733487 -0.20892 -1.03042e-14 -4.08517e-14 -1.4526e-13 -21.813 4.61301 3.14646 5.60952 -2.90391 -8.34206 -0.00431896 1.45926 -0.204846 6.64978e-10 7.48754e-10 -2.42282e-10 1.14882e-09 1.29667e-09 -4.23476e-10 6.64973e-10 7.48758e-10 -2.42267e-10 -7.73091 5.47488 -0.417314 6.64978e-10 7.48756e-10 -2.42283e-10 -2.90554 0.965183 -0.102902 6.64967e-10 7.48756e-10 -2.42277e-10 -10.2786 0.731801 -0.0259123 6.64984e-10 7.48756e-10 -2.42283e-10 -2.22167 -0.733487 0.20892 -2.03217e-16 0.0 -3.88251e-19 0.374996 -7.12599 2.57861 0.0716781 8.19882 0.190152 -1.32816 -3.10898 -10.5622 2.03217e-16 0.0 3.88251e-19 -1.47207 -5.65502 -3.94634 5.59478e-05 2.68325 -0.0551635 0.0773808 -4.16224 -1.23834
4.89626 82.5951 16.8875 -176.612 -26.8928 -169.975 2.30619 -1.42111 1.58396 1.66451 -8.26935 0.513917 -1.52622 -0.478603 -0.74357 -0.289392 6.9608 -2.41759 -0.0 0.0 0.0 -0.0 0.0 0.0 -1.79849e-14 -8.76007e-14 -3.07598e-13 39.2725 26.3692 -7.60734 -11.3216 -6.38172 18.2181 -0.00619578 -4.7359 -0.665428 4.99191e-10 -3.78624e-10 1.36207e-10 8.62698e-10 -6.60318e-10 2.40009e-10 4.99196e-10 -3.78624e-10 1.36194e-10 7.73091 5.47488 0.417314 4.99191e-10 -3.78626e-10 1.362e-10 2.90554 0.965183 0.102902 4.99196e-10 -3.78625e-10 1.36202e-10 10.2786 0.731801 0.0259123 4.99184e-10 -3.78626e-10 1.3621e-10 2.22167 -0.733487 -0.20892 -1.80273e-14 -8.76109e-14 -3.07762e-13 -45.4294 9.47331 6.53152 10.6447 -5.78106 -17.2506 0.00246872 2.99443 -0.420799 1.41209e-09 1.56541e-09 -5.2075e-10 2.4394e-09 2.7109e-09 -9.09933e-10 1.41208e-09 1.56541e-09 -5.20736e-10 -7.73091 5.47488 -0.417314 1.41209e-09 1.56541e-09 -5.20755e-10 -2.90554 0.965183 -0.102902 1.41208e-09 1.56541e-09 -5.2075e-10 -10.2786 0.731801 -0.0259123 1.41209e-09 1.56541e-09 -5.20756e-10 -2.22167 -0.733487 0.20892 -2.03217e-16 0.0 -3.88251e-19 0.326208 -9.62863 5.42458 0.109991 13.6502 0.392622 -4.28825 -7.67184 -22.0314 2.03217e-16 0.0 3.88251e-19 -3.51388 -8.75417 -8.19785 0.0075075 6.24254 -0.168503 -0.481686 -12.1032 -2.47791
4.66021 82.572 16.7951 -176.501 -26.7418 -169.962 3.16281 -2.03617 2.29886 2.43626 -12.0361 0.749637 -2.20219 -0.71799 -1.0771 -0.228089 10.139 -3.54413 -0.0 0.0 0.0 -0.0 0.0 0.0 -2.60822e-14 -1.22466e-13 -4.35528e-13 60.1972 38.0555 -12.6449 -15.174 -8.76017 26.7275 -0.0462863 -6.92495 -0.976861 7.426e-10 -5.35475e-10 1.81912e-10 1.28343e-09 -9.33976e-10 3.21005e-10 7.42605e-10 -5.35476e-10 1.81897e-10 7.73091 5.47488 0.417314 7.42599e-10 -5.35478e-10 1.81901e-10 2.90554 0.965183 0.102902 7.42605e-10 -5.35478e-10 1.81907e-10 10.2786 0.731801 0.0259123 7.42593e-10 -5.35478e-10 1.81915e-10 2.22167 -0.733487 -0.20892 -2.61447e-14 -1.22481e-13 -4.35679e-13 -66.9887 13.6697 9.68565 14.361 -7.97456 -25.2549 0.0184237 4.37755 -0.616136 2.04159e-09 2.24713e-09 -7.27012e-10 3.52701e-09 3.89152e-09 -1.27073e-09 2.04159e-09 2.24714e-09 -7.26998e-10 -7.73091 5.47488 -0.417314 2.04159e-09 2.24714e-09 -7.2702e-10 -2.90554 0.965183 -0.102902 2.04158e-09 2.24713e-09 -7.27015e-10 -10.2786 0.731801 -0.0259123 2.04159e-09 2.24714e-09 -7.27022e-10 -2.22167 -0.733487 0.20892 -2.03217e-16 0.0 -3.88251e-19 0.501521 -11.8644 7.98619 0.110223 18.5995 0.587692 -8.49388 -10.9686 -32.4419 2.03217e-16 0.0 3.88251e-19 -5.73064 -11.394 -12.0689 0.0261738 9.40916 -0.270019 -1.30332 -19.1925 -3.71919
4.49337 82.5421 16.7122 -176.345 -26.5512 -169.918 3.67282 -2.37538 2.77576 3.05173 -14.6438 0.923818 -2.57445 -0.957859 -1.28298 -0.130443 12.3404 -4.3076 -0.0 0.0 0.0 -0.0 0.0 0.0 -3.51738e-14 -1.27612e-13 -4.76984e-13 76.5081 45.8379 -17.4606 -17.4108 -10.067 32.7115 -0.08985 -8.51924 -1.20629 9.26499e-10 -5.84864e-10 1.53125e-10 1.60157e-09 -1.02057e-09 2.72264e-10 9.26504e-10 -5.84867e-10 1.53109e-10 7.73091 5.47488 0.417314 9.26498e-10 -5.84868e-10 1.53112e-10 2.90554 0.965183 0.102902 9.26504e-10 -5.84869e-10 1.5312e-10 10.2786 0.731801 0.0259123 9.26492e-10 -5.84867e-10 1.53128e-10 2.22167 -0.733487 -0.20892 -3.52479e-14 -1.27628e-13 -4.77133e-13 -82.2899 16.3679 12.0217 16.5186 -9.17811 -30.7753 0.0356415 5.38076 -0.75847 2.37707e-09 2.59152e-09 -7.52758e-10 4.10716e-09 4.48817e-09 -1.31739e-09 2.37708e-09 2.59152e-09 -7.52745e-10 -7.73091 5.47488 -0.417314 2.37707e-09 2.59152e-09 -7.52767e-10 -2.90554 0.965183 -0.102902 2.37707e-09 2.59152e-09 -7.52763e-10 -10.2786 0.731801 -0.0259123 2.37708e-09 2.59152e-09 -7.52771e-10 -2.22167 -0.733487 0.20892 -2.03217e-16 0.0 -3.88251e-19 0.760298 -13.513 9.74669 0.0886052 22.2942 0.743389 -12.317 -12.8555 -39.6058 2.03217e-16 0.0 3.88251e-19 -7.49062 -13.0789 -14.8247 0.0457157 11.5942 -0.338376 -2.12718 -24.1832 -4.77585
4.339 82.4653 16.632 -176.114 -26.2932 -169.874 3.68655 -2.30314 2.90205 3.4351 -15.6264 1.00104 -2.5005 -1.21029 -1.2972 -0.139189 13.1775 -4.50245 -0.0 0.0 0.0 -0.0 0.0 0.0 -5.22218e-14 -7.97069e-14 -3.59655e-13 83.3331 48.7528 -19.6743 -18.1751 -10.4639 35.0096 -0.114293 -9.30605 -1.32036 1.07383e-09 -5.02037e-10 2.13119e-11 1.85693e-09 -8.76833e-10 4.4142e-11 1.07383e-09 -5.02045e-10 2.12973e-11 7.73091 5.47488 0.417314 1.07383e-09 -5.02042e-10 2.13007e-11 2.90554 0.965183 0.102902 1.07383e-09 -5.02047e-10 2.13068e-11 10.2786 0.731801 0.0259123 1.07382e-09 -5.02041e-10 2.13142e-11 2.22167 -0.733487 -0.20892 -5.22941e-14 -7.97198e-14 -3.59819e-13 -88.3433 17.0766 13.0489 17.1885 -9.4827 -32.7116 0.0446596 5.82957 -0.822353 2.20231e-09 2.21667e-09 -3.79002e-10 3.80711e-09 3.83978e-09 -6.69445e-10 2.20231e-09 2.21667e-09 -3.78991e-10 -7.73091 5.47488 -0.417314 2.20231e-09 2.21668e-09 -3.79012e-10 -2.90554 0.965183 -0.102902 2.2023e-09 2.21667e-09 -3.79007e-10 -10.2786 0.731801 -0.0259123 2.20231e-09 2.21667e-09 -3.79015e-10 -2.22167 -0.733487 0.20892 -2.03217e-16 0.0 -3.88251e-19 0.955189 -14.3538 10.3947 0.0736473 24.229 0.829792 -14.3312 -14.0476 -41.975 2.03217e-16 0.0 3.88251e-19 -8.19152 -13.5197 -15.9136 0.0542617 12.3954 -0.357324 -2.64705 -26.2588 -5.48041
4.11886 82.6758 16.4029 -176.041 -26.0418 -170.594 3.34388 -1.93841 2.77868 3.64333 -15.4487 1.00608 -2.10692 -1.47116 -1.17511 -0.252731 13.0436 -4.2832 -0.0 0.0 0.0 -0.0 0.0 0.0 -7.46405e-14 5.54664e-15 -1.30704e-13 82.3762 48.4002 -19.1777 -18.0471 -10.3757 34.6474 -0.118676 -9.51509 -1.35051 1.1928e-09 -3.239e-10 -1.84151e-10 2.06357e-09 -5.67064e-10 -3.12217e-10 1.19281e-09 -3.23917e-10 -1.84162e-10 7.73091 5.47488 0.417314 1.19281e-09 -3.23908e-10 -1.84158e-10 2.90554 0.965183 0.102902 1.19281e-09 -3.23919e-10 -1.84156e-10 10.2786 0.731801 0.0259123 1.1928e-09 -3.23905e-10 -1.8415e-10 2.22167 -0.733487 -0.20892 -7.47014e-14 5.53981e-15 -1.30897e-13 -87.6705 16.3991 13.0975 16.925 -9.26876 -32.0658 0.0453082 5.88351 -0.830012 1.66778e-09 1.33984e-09 2.73122e-10 2.88644e-09 2.32245e-09 4.62516e-10 1.66778e-09 1.33985e-09 2.7313e-10 -7.73091 5.47488 -0.417314 1.66778e-09 1.33985e-09 2.73114e-10 -2.90554 0.965183 -0.102902 1.66777e-09 1.33984e-09 2.73119e-10 -10.2786 0.731801 -0.0259123 1.66778e-09 1.33984e-09 2.73111e-10 -2.22167 -0.733487 0.20892 -2.03217e-16 0.0 -3.88251e-19 1.04789 -14.6339 10.2291 0.0738957 24.9071 0.861425 -14.7387 -15.1135 -40.8659 2.03217e-16 0.0 3.88251e-19 -8.05172 -13.1089 -15.7886 0.0523331 12.2087 -0.340251 -2.84362 -26.2611 -5.87158
4.02562 82.6367 16.3778 -175.978 -25.8381 -170.5 2.85145 -1.49849 2.58213 3.74883 -14.8116 0.983754 -1.61329 -1.71654 -1.01916 -0.372096 12.534 -3.94182 -0.0 0.0 0.0 -0.0 0.0 0.0 -8.87043e-14 8.74319e-14 8.25442e-14 78.361 46.677 -17.6486 -17.5639 -10.0955 33.2367 -0.113239 -9.45368 -1.3412 1.22566e-09 -7.84701e-11 -4.21094e-10 2.12144e-09 -1.40407e-10 -7.23471e-10 1.22566e-09 -7.84935e-11 -4.21102e-10 7.73091 5.47488 0.417314 1.22566e-09 -7.84801e-11 -4.21097e-10 2.90554 0.965183 0.102902 1.22566e-09 -7.8496e-11 -4.211e-10 10.2786 0.731801 0.0259123 1.22565e-09 -7.84757e-11 -4.21094e-10 2.22167 -0.733487 -0.20892 -8.87525e-14 8.74316e-14 8.23206e-14 -84.2646 15.1805 12.7546 16.2646 -8.82799 -30.3773 0.0427932 5.81576 -0.820286 1.14714e-09 6.57364e-10 8.01746e-10 1.98913e-09 1.14145e-09 1.38039e-09 1.14714e-09 6.57372e-10 8.01753e-10 -7.73091 5.47488 -0.417314 1.14714e-09 6.57371e-10 8.01742e-10 -2.90554 0.965183 -0.102902 1.14713e-09 6.5737e-10 8.01747e-10 -10.2786 0.731801 -0.0259123 1.14714e-09 6.57366e-10 8.01739e-10 -2.22167 -0.733487 0.20892 -2.03217e-16 0.0 -3.88251e-19 1.03613 -14.7494 9.63599 0.0797399 25.0887 0.869323 -14.3354 -16.0735 -38.3134 2.03217e-16 0.0 3.88251e-19 -7.62185 -12.4123 -15.192 0.0464755 11.6423 -0.309289 -2.84023 -25.439 -6.0246
3.95324 82.5885 16.364 -175.835 -25.6906 -170.465 2.41045 -1.201 2.48845 3.82472 -14.4162 0.97906 -1.24116 -1.92245 -0.931825 -0.405885 12.2457 -3.76858 -0.0 0.0 0.0 -0.0 0.0 0.0 -8.06881e-14 1.25232e-13 1.52766e-13 76.0145 45.4873 -16.7741 -17.2637 -9.91631 32.3885 -0.1103 -9.42908 -1.33739 1.11461e-09 2.0624e-10 -6.47348e-10 1.93044e-09 3.53993e-10 -1.11628e-09 1.11461e-09 2.06214e-10 -6.47354e-10 7.73091 5.47488 0.417314 1.11461e-09 2.06229e-10 -6.47348e-10 2.90554 0.965183 0.102902 1.11462e-09 2.06211e-10 -6.47353e-10 10.2786 0.731801 0.0259123 1.1146e-09 2.06234e-10 -6.47348e-10 2.22167 -0.733487 -0.20892 -8.07304e-14 1.25236e-13 1.52518e-13 -82.1112 14.2647 12.5983 15.7662 -8.47174 -29.1806 0.0428772 5.89951 -0.832094 1.01407e-09 8.6558e-10 8.05005e-10 1.75915e-09 1.50206e-09 1.38609e-09 1.01407e-09 8.65588e-10 8.05011e-10 -7.73091 5.47488 -0.417314 1.01407e-09 8.65586e-10 8.05002e-10 -2.90554 0.965183 -0.102902 1.01406e-09 8.65586e-10 8.05006e-10 -10.2786 0.731801 -0.0259123 1.01407e-09 8.65581e-10 8.04998e-10 -2.22167 -0.733487 0.20892 -2.03217e-16 0.0 -3.88251e-19 0.925537 -15.095 9.00498 0.0770754 25.534 0.886994 -14.067 -16.8704 -36.3985 2.03217e-16 0.0 3.88251e-19 -7.43834 -11.9987 -14.8594 0.0426444 11.3044 -0.286431 -2.81034 -25.0362 -6.03887
